solid OpenSCAD_Model
  facet normal 1 -0 0
    outer loop
      vertex 1.6 -0.599999 0.599999
      vertex 1.6 0.599999 0
      vertex 1.6 0.599999 0.599999
    endloop
  endfacet
  facet normal 1 0 0
    outer loop
      vertex 1.6 0.599999 0
      vertex 1.6 -0.599999 0.599999
      vertex 1.6 -0.599999 0
    endloop
  endfacet
  facet normal -1 0 0
    outer loop
      vertex 8.6 -0.599999 0
      vertex 8.6 0.599999 0.599999
      vertex 8.6 0.599999 0
    endloop
  endfacet
  facet normal -1 -0 0
    outer loop
      vertex 8.6 0.599999 0.599999
      vertex 8.6 -0.599999 0
      vertex 8.6 -0.599999 0.599999
    endloop
  endfacet
  facet normal 0 1 -0
    outer loop
      vertex 8.6 -0.599999 0
      vertex 1.6 -0.599999 0.599999
      vertex 8.6 -0.599999 0.599999
    endloop
  endfacet
  facet normal 0 1 0
    outer loop
      vertex 1.6 -0.599999 0.599999
      vertex 8.6 -0.599999 0
      vertex 1.6 -0.599999 0
    endloop
  endfacet
  facet normal 0 -1 0
    outer loop
      vertex 1.6 0.599999 0
      vertex 8.6 0.599999 0.599999
      vertex 1.6 0.599999 0.599999
    endloop
  endfacet
  facet normal 0 -1 -0
    outer loop
      vertex 8.6 0.599999 0.599999
      vertex 1.6 0.599999 0
      vertex 8.6 0.599999 0
    endloop
  endfacet
  facet normal -0.309016 -0.951057 0
    outer loop
      vertex 2.08691 8.3645 0
      vertex 3.22818 7.99368 0.599999
      vertex 2.08691 8.3645 0.599999
    endloop
  endfacet
  facet normal -0.309016 -0.951057 -0
    outer loop
      vertex 3.22818 7.99368 0.599999
      vertex 2.08691 8.3645 0
      vertex 3.22818 7.99368 0
    endloop
  endfacet
  facet normal 0.309017 0.951056 -0
    outer loop
      vertex 1.06506 1.33628 0
      vertex -0.0762062 1.7071 0.599999
      vertex 1.06506 1.33628 0.599999
    endloop
  endfacet
  facet normal 0.309017 0.951056 0
    outer loop
      vertex -0.0762062 1.7071 0.599999
      vertex 1.06506 1.33628 0
      vertex -0.0762062 1.7071 0
    endloop
  endfacet
  facet normal -0.951057 0.309017 0
    outer loop
      vertex 1.06506 1.33628 0
      vertex 3.22818 7.99368 0.599999
      vertex 3.22818 7.99368 0
    endloop
  endfacet
  facet normal -0.951057 0.309017 0
    outer loop
      vertex 3.22818 7.99368 0.599999
      vertex 1.06506 1.33628 0
      vertex 1.06506 1.33628 0.599999
    endloop
  endfacet
  facet normal 0.951057 -0.309016 0
    outer loop
      vertex -0.0762062 1.7071 0.599999
      vertex 2.08691 8.3645 0
      vertex 2.08691 8.3645 0.599999
    endloop
  endfacet
  facet normal 0.951057 -0.309016 0
    outer loop
      vertex 2.08691 8.3645 0
      vertex -0.0762062 1.7071 0.599999
      vertex -0.0762062 1.7071 0
    endloop
  endfacet
  facet normal 0.809014 -0.58779 0
    outer loop
      vertex -7.31022 4.56954 0.599999
      vertex -6.60487 5.54036 0
      vertex -6.60487 5.54036 0.599999
    endloop
  endfacet
  facet normal 0.809014 -0.58779 0
    outer loop
      vertex -6.60487 5.54036 0
      vertex -7.31022 4.56954 0.599999
      vertex -7.31022 4.56954 0
    endloop
  endfacet
  facet normal -0.587785 -0.809017 0
    outer loop
      vertex -6.60487 5.54036 0
      vertex -0.941755 1.42587 0.599999
      vertex -6.60487 5.54036 0.599999
    endloop
  endfacet
  facet normal -0.587785 -0.809017 -0
    outer loop
      vertex -0.941755 1.42587 0.599999
      vertex -6.60487 5.54036 0
      vertex -0.941755 1.42587 0
    endloop
  endfacet
  facet normal -0.809017 0.587785 0
    outer loop
      vertex -1.6471 0.455046 0
      vertex -0.941755 1.42587 0.599999
      vertex -0.941755 1.42587 0
    endloop
  endfacet
  facet normal -0.809017 0.587785 0
    outer loop
      vertex -0.941755 1.42587 0.599999
      vertex -1.6471 0.455046 0
      vertex -1.6471 0.455046 0.599999
    endloop
  endfacet
  facet normal 0.587785 0.809017 -0
    outer loop
      vertex -1.6471 0.455046 0
      vertex -7.31022 4.56954 0.599999
      vertex -1.6471 0.455046 0.599999
    endloop
  endfacet
  facet normal 0.587785 0.809017 0
    outer loop
      vertex -7.31022 4.56954 0.599999
      vertex -1.6471 0.455046 0
      vertex -7.31022 4.56954 0
    endloop
  endfacet
  facet normal -0.809017 -0.587785 0
    outer loop
      vertex -0.941755 -1.42587 0
      vertex -1.6471 -0.455046 0.599999
      vertex -1.6471 -0.455046 0
    endloop
  endfacet
  facet normal -0.809017 -0.587785 0
    outer loop
      vertex -1.6471 -0.455046 0.599999
      vertex -0.941755 -1.42587 0
      vertex -0.941755 -1.42587 0.599999
    endloop
  endfacet
  facet normal 0.809014 0.58779 0
    outer loop
      vertex -6.60487 -5.54036 0.599999
      vertex -7.31022 -4.56954 0
      vertex -7.31022 -4.56954 0.599999
    endloop
  endfacet
  facet normal 0.809014 0.58779 0
    outer loop
      vertex -7.31022 -4.56954 0
      vertex -6.60487 -5.54036 0.599999
      vertex -6.60487 -5.54036 0
    endloop
  endfacet
  facet normal 0.587785 -0.809017 0
    outer loop
      vertex -7.31022 -4.56954 0
      vertex -1.6471 -0.455046 0.599999
      vertex -7.31022 -4.56954 0.599999
    endloop
  endfacet
  facet normal 0.587785 -0.809017 0
    outer loop
      vertex -1.6471 -0.455046 0.599999
      vertex -7.31022 -4.56954 0
      vertex -1.6471 -0.455046 0
    endloop
  endfacet
  facet normal -0.587785 0.809017 0
    outer loop
      vertex -0.941755 -1.42587 0
      vertex -6.60487 -5.54036 0.599999
      vertex -0.941755 -1.42587 0.599999
    endloop
  endfacet
  facet normal -0.587785 0.809017 0
    outer loop
      vertex -6.60487 -5.54036 0.599999
      vertex -0.941755 -1.42587 0
      vertex -6.60487 -5.54036 0
    endloop
  endfacet
  facet normal 0.309017 -0.951056 0
    outer loop
      vertex -0.0762062 -1.7071 0
      vertex 1.06506 -1.33628 0.599999
      vertex -0.0762062 -1.7071 0.599999
    endloop
  endfacet
  facet normal 0.309017 -0.951056 0
    outer loop
      vertex 1.06506 -1.33628 0.599999
      vertex -0.0762062 -1.7071 0
      vertex 1.06506 -1.33628 0
    endloop
  endfacet
  facet normal -0.309016 0.951057 0
    outer loop
      vertex 3.22818 -7.99368 0
      vertex 2.08691 -8.3645 0.599999
      vertex 3.22818 -7.99368 0.599999
    endloop
  endfacet
  facet normal -0.309016 0.951057 0
    outer loop
      vertex 2.08691 -8.3645 0.599999
      vertex 3.22818 -7.99368 0
      vertex 2.08691 -8.3645 0
    endloop
  endfacet
  facet normal 0.951057 0.309016 0
    outer loop
      vertex 2.08691 -8.3645 0.599999
      vertex -0.0762062 -1.7071 0
      vertex -0.0762062 -1.7071 0.599999
    endloop
  endfacet
  facet normal 0.951057 0.309016 0
    outer loop
      vertex -0.0762062 -1.7071 0
      vertex 2.08691 -8.3645 0.599999
      vertex 2.08691 -8.3645 0
    endloop
  endfacet
  facet normal -0.951057 -0.309017 0
    outer loop
      vertex 3.22818 -7.99368 0
      vertex 1.06506 -1.33628 0.599999
      vertex 1.06506 -1.33628 0
    endloop
  endfacet
  facet normal -0.951057 -0.309017 0
    outer loop
      vertex 1.06506 -1.33628 0.599999
      vertex 3.22818 -7.99368 0
      vertex 3.22818 -7.99368 0.599999
    endloop
  endfacet
  facet normal 0.671567 0.740944 -0
    outer loop
      vertex 9.36916 9.36916 0
      vertex 8.40571 10.2424 0.599999
      vertex 9.36916 9.36916 0.599999
    endloop
  endfacet
  facet normal 0.671567 0.740944 0
    outer loop
      vertex 8.40571 10.2424 0.599999
      vertex 9.36916 9.36916 0
      vertex 8.40571 10.2424 0
    endloop
  endfacet
  facet normal -0.336921 0.941533 0
    outer loop
      vertex -3.84627 12.6795 0
      vertex -5.07055 12.2414 0.599999
      vertex -3.84627 12.6795 0.599999
    endloop
  endfacet
  facet normal -0.336921 0.941533 0
    outer loop
      vertex -5.07055 12.2414 0.599999
      vertex -3.84627 12.6795 0
      vertex -5.07055 12.2414 0
    endloop
  endfacet
  facet normal -0.904005 0.427523 0
    outer loop
      vertex -12.2414 5.07055 0
      vertex -11.6855 6.24601 0.599999
      vertex -11.6855 6.24601 0
    endloop
  endfacet
  facet normal -0.904005 0.427523 0
    outer loop
      vertex -11.6855 6.24601 0.599999
      vertex -12.2414 5.07055 0
      vertex -12.2414 5.07055 0.599999
    endloop
  endfacet
  facet normal -0.427523 -0.904005 0
    outer loop
      vertex -6.24601 -11.6855 0
      vertex -5.07055 -12.2414 0.599999
      vertex -6.24601 -11.6855 0.599999
    endloop
  endfacet
  facet normal -0.427523 -0.904005 -0
    outer loop
      vertex -5.07055 -12.2414 0.599999
      vertex -6.24601 -11.6855 0
      vertex -5.07055 -12.2414 0
    endloop
  endfacet
  facet normal 0.941533 0.336921 0
    outer loop
      vertex 12.6795 3.84627 0.599999
      vertex 12.2414 5.07055 0
      vertex 12.2414 5.07055 0.599999
    endloop
  endfacet
  facet normal 0.941533 0.336921 0
    outer loop
      vertex 12.2414 5.07055 0
      vertex 12.6795 3.84627 0.599999
      vertex 12.6795 3.84627 0
    endloop
  endfacet
  facet normal 0.989176 0.146736 0
    outer loop
      vertex 13.1862 1.29873 0.599999
      vertex 12.9954 2.58495 0
      vertex 12.9954 2.58495 0.599999
    endloop
  endfacet
  facet normal 0.989176 0.146736 0
    outer loop
      vertex 12.9954 2.58495 0
      vertex 13.1862 1.29873 0.599999
      vertex 13.1862 1.29873 0
    endloop
  endfacet
  facet normal 0.904005 0.427523 0
    outer loop
      vertex 12.2414 5.07055 0.599999
      vertex 11.6855 6.24601 0
      vertex 11.6855 6.24601 0.599999
    endloop
  endfacet
  facet normal 0.904005 0.427523 0
    outer loop
      vertex 11.6855 6.24601 0
      vertex 12.2414 5.07055 0.599999
      vertex 12.2414 5.07055 0
    endloop
  endfacet
  facet normal 0.427523 0.904005 -0
    outer loop
      vertex 6.24601 11.6855 0
      vertex 5.07055 12.2414 0.599999
      vertex 6.24601 11.6855 0.599999
    endloop
  endfacet
  facet normal 0.427523 0.904005 0
    outer loop
      vertex 5.07055 12.2414 0.599999
      vertex 6.24601 11.6855 0
      vertex 5.07055 12.2414 0
    endloop
  endfacet
  facet normal -0.740944 0.671567 0
    outer loop
      vertex -10.2424 8.40571 0
      vertex -9.36916 9.36916 0.599999
      vertex -9.36916 9.36916 0
    endloop
  endfacet
  facet normal -0.740944 0.671567 0
    outer loop
      vertex -9.36916 9.36916 0.599999
      vertex -10.2424 8.40571 0
      vertex -10.2424 8.40571 0.599999
    endloop
  endfacet
  facet normal -0.146736 0.989176 0
    outer loop
      vertex -1.29873 13.1862 0
      vertex -2.58495 12.9954 0.599999
      vertex -1.29873 13.1862 0.599999
    endloop
  endfacet
  facet normal -0.146736 0.989176 0
    outer loop
      vertex -2.58495 12.9954 0.599999
      vertex -1.29873 13.1862 0
      vertex -2.58495 12.9954 0
    endloop
  endfacet
  facet normal 0.998796 -0.0490657 0
    outer loop
      vertex 13.1862 -1.29873 0.599999
      vertex 13.25 0 0
      vertex 13.25 0 0.599999
    endloop
  endfacet
  facet normal 0.998796 -0.0490657 0
    outer loop
      vertex 13.25 0 0
      vertex 13.1862 -1.29873 0.599999
      vertex 13.1862 -1.29873 0
    endloop
  endfacet
  facet normal 0.740944 -0.671567 0
    outer loop
      vertex 9.36916 -9.36916 0.599999
      vertex 10.2424 -8.40571 0
      vertex 10.2424 -8.40571 0.599999
    endloop
  endfacet
  facet normal 0.740944 -0.671567 0
    outer loop
      vertex 10.2424 -8.40571 0
      vertex 9.36916 -9.36916 0.599999
      vertex 9.36916 -9.36916 0
    endloop
  endfacet
  facet normal -0.146736 -0.989176 0
    outer loop
      vertex -2.58495 -12.9954 0
      vertex -1.29873 -13.1862 0.599999
      vertex -2.58495 -12.9954 0.599999
    endloop
  endfacet
  facet normal -0.146736 -0.989176 -0
    outer loop
      vertex -1.29873 -13.1862 0.599999
      vertex -2.58495 -12.9954 0
      vertex -1.29873 -13.1862 0
    endloop
  endfacet
  facet normal -0.671567 -0.740944 0
    outer loop
      vertex -9.36916 -9.36916 0
      vertex -8.40571 -10.2424 0.599999
      vertex -9.36916 -9.36916 0.599999
    endloop
  endfacet
  facet normal -0.671567 -0.740944 -0
    outer loop
      vertex -8.40571 -10.2424 0.599999
      vertex -9.36916 -9.36916 0
      vertex -8.40571 -10.2424 0
    endloop
  endfacet
  facet normal 0.970039 0.242948 0
    outer loop
      vertex 12.9954 2.58495 0.599999
      vertex 12.6795 3.84627 0
      vertex 12.6795 3.84627 0.599999
    endloop
  endfacet
  facet normal 0.970039 0.242948 0
    outer loop
      vertex 12.6795 3.84627 0
      vertex 12.9954 2.58495 0.599999
      vertex 12.9954 2.58495 0
    endloop
  endfacet
  facet normal 0.8032 0.595709 0
    outer loop
      vertex 11.017 7.36131 0.599999
      vertex 10.2424 8.40571 0
      vertex 10.2424 8.40571 0.599999
    endloop
  endfacet
  facet normal 0.8032 0.595709 0
    outer loop
      vertex 10.2424 8.40571 0
      vertex 11.017 7.36131 0.599999
      vertex 11.017 7.36131 0
    endloop
  endfacet
  facet normal 0.857724 0.514111 0
    outer loop
      vertex 11.6855 6.24601 0.599999
      vertex 11.017 7.36131 0
      vertex 11.017 7.36131 0.599999
    endloop
  endfacet
  facet normal 0.857724 0.514111 0
    outer loop
      vertex 11.017 7.36131 0
      vertex 11.6855 6.24601 0.599999
      vertex 11.6855 6.24601 0
    endloop
  endfacet
  facet normal 0.740944 0.671567 0
    outer loop
      vertex 10.2424 8.40571 0.599999
      vertex 9.36916 9.36916 0
      vertex 9.36916 9.36916 0.599999
    endloop
  endfacet
  facet normal 0.740944 0.671567 0
    outer loop
      vertex 9.36916 9.36916 0
      vertex 10.2424 8.40571 0.599999
      vertex 10.2424 8.40571 0
    endloop
  endfacet
  facet normal 0.595709 0.8032 -0
    outer loop
      vertex 8.40571 10.2424 0
      vertex 7.36131 11.017 0.599999
      vertex 8.40571 10.2424 0.599999
    endloop
  endfacet
  facet normal 0.595709 0.8032 0
    outer loop
      vertex 7.36131 11.017 0.599999
      vertex 8.40571 10.2424 0
      vertex 7.36131 11.017 0
    endloop
  endfacet
  facet normal 0.0490657 0.998796 -0
    outer loop
      vertex 1.29873 13.1862 0
      vertex 0 13.25 0.599999
      vertex 1.29873 13.1862 0.599999
    endloop
  endfacet
  facet normal 0.0490657 0.998796 0
    outer loop
      vertex 0 13.25 0.599999
      vertex 1.29873 13.1862 0
      vertex 0 13.25 0
    endloop
  endfacet
  facet normal 0.514111 0.857724 -0
    outer loop
      vertex 7.36131 11.017 0
      vertex 6.24601 11.6855 0.599999
      vertex 7.36131 11.017 0.599999
    endloop
  endfacet
  facet normal 0.514111 0.857724 0
    outer loop
      vertex 6.24601 11.6855 0.599999
      vertex 7.36131 11.017 0
      vertex 6.24601 11.6855 0
    endloop
  endfacet
  facet normal 0.336921 0.941533 -0
    outer loop
      vertex 5.07055 12.2414 0
      vertex 3.84627 12.6795 0.599999
      vertex 5.07055 12.2414 0.599999
    endloop
  endfacet
  facet normal 0.336921 0.941533 0
    outer loop
      vertex 3.84627 12.6795 0.599999
      vertex 5.07055 12.2414 0
      vertex 3.84627 12.6795 0
    endloop
  endfacet
  facet normal 0.242948 0.970039 -0
    outer loop
      vertex 3.84627 12.6795 0
      vertex 2.58495 12.9954 0.599999
      vertex 3.84627 12.6795 0.599999
    endloop
  endfacet
  facet normal 0.242948 0.970039 0
    outer loop
      vertex 2.58495 12.9954 0.599999
      vertex 3.84627 12.6795 0
      vertex 2.58495 12.9954 0
    endloop
  endfacet
  facet normal -0.998796 0.0490657 0
    outer loop
      vertex -13.25 0 0
      vertex -13.1862 1.29873 0.599999
      vertex -13.1862 1.29873 0
    endloop
  endfacet
  facet normal -0.998796 0.0490657 0
    outer loop
      vertex -13.1862 1.29873 0.599999
      vertex -13.25 0 0
      vertex -13.25 0 0.599999
    endloop
  endfacet
  facet normal -0.941533 0.336921 0
    outer loop
      vertex -12.6795 3.84627 0
      vertex -12.2414 5.07055 0.599999
      vertex -12.2414 5.07055 0
    endloop
  endfacet
  facet normal -0.941533 0.336921 0
    outer loop
      vertex -12.2414 5.07055 0.599999
      vertex -12.6795 3.84627 0
      vertex -12.6795 3.84627 0.599999
    endloop
  endfacet
  facet normal -0.970039 0.242948 0
    outer loop
      vertex -12.9954 2.58495 0
      vertex -12.6795 3.84627 0.599999
      vertex -12.6795 3.84627 0
    endloop
  endfacet
  facet normal -0.970039 0.242948 0
    outer loop
      vertex -12.6795 3.84627 0.599999
      vertex -12.9954 2.58495 0
      vertex -12.9954 2.58495 0.599999
    endloop
  endfacet
  facet normal -0.857724 0.514111 0
    outer loop
      vertex -11.6855 6.24601 0
      vertex -11.017 7.36131 0.599999
      vertex -11.017 7.36131 0
    endloop
  endfacet
  facet normal -0.857724 0.514111 0
    outer loop
      vertex -11.017 7.36131 0.599999
      vertex -11.6855 6.24601 0
      vertex -11.6855 6.24601 0.599999
    endloop
  endfacet
  facet normal -0.8032 0.595709 0
    outer loop
      vertex -11.017 7.36131 0
      vertex -10.2424 8.40571 0.599999
      vertex -10.2424 8.40571 0
    endloop
  endfacet
  facet normal -0.8032 0.595709 0
    outer loop
      vertex -10.2424 8.40571 0.599999
      vertex -11.017 7.36131 0
      vertex -11.017 7.36131 0.599999
    endloop
  endfacet
  facet normal -0.242948 0.970039 0
    outer loop
      vertex -2.58495 12.9954 0
      vertex -3.84627 12.6795 0.599999
      vertex -2.58495 12.9954 0.599999
    endloop
  endfacet
  facet normal -0.242948 0.970039 0
    outer loop
      vertex -3.84627 12.6795 0.599999
      vertex -2.58495 12.9954 0
      vertex -3.84627 12.6795 0
    endloop
  endfacet
  facet normal -0.0490657 0.998796 0
    outer loop
      vertex 0 13.25 0
      vertex -1.29873 13.1862 0.599999
      vertex 0 13.25 0.599999
    endloop
  endfacet
  facet normal -0.0490657 0.998796 0
    outer loop
      vertex -1.29873 13.1862 0.599999
      vertex 0 13.25 0
      vertex -1.29873 13.1862 0
    endloop
  endfacet
  facet normal -0.514111 0.857724 0
    outer loop
      vertex -6.24601 11.6855 0
      vertex -7.36131 11.017 0.599999
      vertex -6.24601 11.6855 0.599999
    endloop
  endfacet
  facet normal -0.514111 0.857724 0
    outer loop
      vertex -7.36131 11.017 0.599999
      vertex -6.24601 11.6855 0
      vertex -7.36131 11.017 0
    endloop
  endfacet
  facet normal -0.595709 0.8032 0
    outer loop
      vertex -7.36131 11.017 0
      vertex -8.40571 10.2424 0.599999
      vertex -7.36131 11.017 0.599999
    endloop
  endfacet
  facet normal -0.595709 0.8032 0
    outer loop
      vertex -8.40571 10.2424 0.599999
      vertex -7.36131 11.017 0
      vertex -8.40571 10.2424 0
    endloop
  endfacet
  facet normal -0.427523 0.904005 0
    outer loop
      vertex -5.07055 12.2414 0
      vertex -6.24601 11.6855 0.599999
      vertex -5.07055 12.2414 0.599999
    endloop
  endfacet
  facet normal -0.427523 0.904005 0
    outer loop
      vertex -6.24601 11.6855 0.599999
      vertex -5.07055 12.2414 0
      vertex -6.24601 11.6855 0
    endloop
  endfacet
  facet normal -0.671567 0.740944 0
    outer loop
      vertex -8.40571 10.2424 0
      vertex -9.36916 9.36916 0.599999
      vertex -8.40571 10.2424 0.599999
    endloop
  endfacet
  facet normal -0.671567 0.740944 0
    outer loop
      vertex -9.36916 9.36916 0.599999
      vertex -8.40571 10.2424 0
      vertex -9.36916 9.36916 0
    endloop
  endfacet
  facet normal 0.998796 0.0490657 0
    outer loop
      vertex 13.25 0 0.599999
      vertex 13.1862 1.29873 0
      vertex 13.1862 1.29873 0.599999
    endloop
  endfacet
  facet normal 0.998796 0.0490657 0
    outer loop
      vertex 13.1862 1.29873 0
      vertex 13.25 0 0.599999
      vertex 13.25 0 0
    endloop
  endfacet
  facet normal 0.0490657 -0.998796 0
    outer loop
      vertex 0 -13.25 0
      vertex 1.29873 -13.1862 0.599999
      vertex 0 -13.25 0.599999
    endloop
  endfacet
  facet normal 0.0490657 -0.998796 0
    outer loop
      vertex 1.29873 -13.1862 0.599999
      vertex 0 -13.25 0
      vertex 1.29873 -13.1862 0
    endloop
  endfacet
  facet normal 0.146736 -0.989176 0
    outer loop
      vertex 1.29873 -13.1862 0
      vertex 2.58495 -12.9954 0.599999
      vertex 1.29873 -13.1862 0.599999
    endloop
  endfacet
  facet normal 0.146736 -0.989176 0
    outer loop
      vertex 2.58495 -12.9954 0.599999
      vertex 1.29873 -13.1862 0
      vertex 2.58495 -12.9954 0
    endloop
  endfacet
  facet normal 0.242948 -0.970039 0
    outer loop
      vertex 2.58495 -12.9954 0
      vertex 3.84627 -12.6795 0.599999
      vertex 2.58495 -12.9954 0.599999
    endloop
  endfacet
  facet normal 0.242948 -0.970039 0
    outer loop
      vertex 3.84627 -12.6795 0.599999
      vertex 2.58495 -12.9954 0
      vertex 3.84627 -12.6795 0
    endloop
  endfacet
  facet normal 0.595709 -0.8032 0
    outer loop
      vertex 7.36131 -11.017 0
      vertex 8.40571 -10.2424 0.599999
      vertex 7.36131 -11.017 0.599999
    endloop
  endfacet
  facet normal 0.595709 -0.8032 0
    outer loop
      vertex 8.40571 -10.2424 0.599999
      vertex 7.36131 -11.017 0
      vertex 8.40571 -10.2424 0
    endloop
  endfacet
  facet normal 0.427523 -0.904005 0
    outer loop
      vertex 5.07055 -12.2414 0
      vertex 6.24601 -11.6855 0.599999
      vertex 5.07055 -12.2414 0.599999
    endloop
  endfacet
  facet normal 0.427523 -0.904005 0
    outer loop
      vertex 6.24601 -11.6855 0.599999
      vertex 5.07055 -12.2414 0
      vertex 6.24601 -11.6855 0
    endloop
  endfacet
  facet normal 0.857724 -0.514111 0
    outer loop
      vertex 11.017 -7.36131 0.599999
      vertex 11.6855 -6.24601 0
      vertex 11.6855 -6.24601 0.599999
    endloop
  endfacet
  facet normal 0.857724 -0.514111 0
    outer loop
      vertex 11.6855 -6.24601 0
      vertex 11.017 -7.36131 0.599999
      vertex 11.017 -7.36131 0
    endloop
  endfacet
  facet normal -0.0490657 -0.998796 0
    outer loop
      vertex -1.29873 -13.1862 0
      vertex 0 -13.25 0.599999
      vertex -1.29873 -13.1862 0.599999
    endloop
  endfacet
  facet normal -0.0490657 -0.998796 -0
    outer loop
      vertex 0 -13.25 0.599999
      vertex -1.29873 -13.1862 0
      vertex 0 -13.25 0
    endloop
  endfacet
  facet normal -0.336921 -0.941533 0
    outer loop
      vertex -5.07055 -12.2414 0
      vertex -3.84627 -12.6795 0.599999
      vertex -5.07055 -12.2414 0.599999
    endloop
  endfacet
  facet normal -0.336921 -0.941533 -0
    outer loop
      vertex -3.84627 -12.6795 0.599999
      vertex -5.07055 -12.2414 0
      vertex -3.84627 -12.6795 0
    endloop
  endfacet
  facet normal -0.514111 -0.857724 0
    outer loop
      vertex -7.36131 -11.017 0
      vertex -6.24601 -11.6855 0.599999
      vertex -7.36131 -11.017 0.599999
    endloop
  endfacet
  facet normal -0.514111 -0.857724 -0
    outer loop
      vertex -6.24601 -11.6855 0.599999
      vertex -7.36131 -11.017 0
      vertex -6.24601 -11.6855 0
    endloop
  endfacet
  facet normal -0.970039 -0.242948 0
    outer loop
      vertex -12.6795 -3.84627 0
      vertex -12.9954 -2.58495 0.599999
      vertex -12.9954 -2.58495 0
    endloop
  endfacet
  facet normal -0.970039 -0.242948 0
    outer loop
      vertex -12.9954 -2.58495 0.599999
      vertex -12.6795 -3.84627 0
      vertex -12.6795 -3.84627 0.599999
    endloop
  endfacet
  facet normal -0.998796 -0.0490657 0
    outer loop
      vertex -13.1862 -1.29873 0
      vertex -13.25 0 0.599999
      vertex -13.25 0 0
    endloop
  endfacet
  facet normal -0.998796 -0.0490657 0
    outer loop
      vertex -13.25 0 0.599999
      vertex -13.1862 -1.29873 0
      vertex -13.1862 -1.29873 0.599999
    endloop
  endfacet
  facet normal 0 0 -1
    outer loop
      vertex -1.6471 -0.455046 0
      vertex -0.941755 1.42587 0
      vertex -0.941755 -1.42587 0
    endloop
  endfacet
  facet normal 0 0 -1
    outer loop
      vertex -1.6471 -0.455046 0
      vertex -1.6471 0.455046 0
      vertex -0.941755 1.42587 0
    endloop
  endfacet
  facet normal 0 0 -1
    outer loop
      vertex -7.31022 -4.56954 0
      vertex -1.6471 0.455046 0
      vertex -1.6471 -0.455046 0
    endloop
  endfacet
  facet normal -0 0 -1
    outer loop
      vertex -1.6471 0.455046 0
      vertex -7.31022 -4.56954 0
      vertex -7.31022 4.56954 0
    endloop
  endfacet
  facet normal 0 0 -1
    outer loop
      vertex 2.08691 -8.3645 0
      vertex 3.84627 -12.6795 0
      vertex 2.58495 -12.9954 0
    endloop
  endfacet
  facet normal 0 0 -1
    outer loop
      vertex 3.84627 -12.6795 0
      vertex 2.08691 -8.3645 0
      vertex 3.22818 -7.99368 0
    endloop
  endfacet
  facet normal 0 0 -1
    outer loop
      vertex 1.29873 -13.1862 0
      vertex 2.08691 -8.3645 0
      vertex 2.58495 -12.9954 0
    endloop
  endfacet
  facet normal 0 0 -1
    outer loop
      vertex 0 -13.25 0
      vertex 2.08691 -8.3645 0
      vertex 1.29873 -13.1862 0
    endloop
  endfacet
  facet normal 0 0 -1
    outer loop
      vertex -1.29873 -13.1862 0
      vertex 2.08691 -8.3645 0
      vertex 0 -13.25 0
    endloop
  endfacet
  facet normal 0 0 -1
    outer loop
      vertex -0.0762062 -1.7071 0
      vertex -0.941755 -1.42587 0
      vertex -0.0762062 1.7071 0
    endloop
  endfacet
  facet normal 0 0 -1
    outer loop
      vertex -2.58495 -12.9954 0
      vertex 2.08691 -8.3645 0
      vertex -1.29873 -13.1862 0
    endloop
  endfacet
  facet normal 0 0 -1
    outer loop
      vertex 2.08691 -8.3645 0
      vertex -6.60487 -5.54036 0
      vertex -0.0762062 -1.7071 0
    endloop
  endfacet
  facet normal 0 0 -1
    outer loop
      vertex -3.84627 -12.6795 0
      vertex 2.08691 -8.3645 0
      vertex -2.58495 -12.9954 0
    endloop
  endfacet
  facet normal -0 0 -1
    outer loop
      vertex 2.08691 -8.3645 0
      vertex -3.84627 -12.6795 0
      vertex -6.60487 -5.54036 0
    endloop
  endfacet
  facet normal 0 0 -1
    outer loop
      vertex -6.60487 -5.54036 0
      vertex -3.84627 -12.6795 0
      vertex -5.07055 -12.2414 0
    endloop
  endfacet
  facet normal 0 0 -1
    outer loop
      vertex -6.60487 -5.54036 0
      vertex -5.07055 -12.2414 0
      vertex -6.24601 -11.6855 0
    endloop
  endfacet
  facet normal -0 0 -1
    outer loop
      vertex -0.0762062 -1.7071 0
      vertex -6.60487 -5.54036 0
      vertex -0.941755 -1.42587 0
    endloop
  endfacet
  facet normal 0 0 -1
    outer loop
      vertex -7.36131 -11.017 0
      vertex -6.60487 -5.54036 0
      vertex -6.24601 -11.6855 0
    endloop
  endfacet
  facet normal 0 0 -1
    outer loop
      vertex -9.36916 -9.36916 0
      vertex -6.60487 -5.54036 0
      vertex -8.40571 -10.2424 0
    endloop
  endfacet
  facet normal 0 0 -1
    outer loop
      vertex -8.40571 -10.2424 0
      vertex -6.60487 -5.54036 0
      vertex -7.36131 -11.017 0
    endloop
  endfacet
  facet normal 0 0 -1
    outer loop
      vertex 8.6 -0.599999 0
      vertex 13.25 0 0
      vertex 13.1862 -1.29873 0
    endloop
  endfacet
  facet normal 0 0 -1
    outer loop
      vertex 8.6 -0.599999 0
      vertex 13.1862 -1.29873 0
      vertex 12.9954 -2.58495 0
    endloop
  endfacet
  facet normal 0 0 -1
    outer loop
      vertex 8.6 0.599999 0
      vertex 13.25 0 0
      vertex 8.6 -0.599999 0
    endloop
  endfacet
  facet normal 0 0 -1
    outer loop
      vertex 8.6 -0.599999 0
      vertex 12.9954 -2.58495 0
      vertex 12.6795 -3.84627 0
    endloop
  endfacet
  facet normal 0 0 -1
    outer loop
      vertex 13.25 0 0
      vertex 8.6 0.599999 0
      vertex 13.1862 1.29873 0
    endloop
  endfacet
  facet normal 0 0 -1
    outer loop
      vertex 8.6 -0.599999 0
      vertex 12.6795 -3.84627 0
      vertex 12.2414 -5.07055 0
    endloop
  endfacet
  facet normal -0 0 -1
    outer loop
      vertex 13.1862 1.29873 0
      vertex 8.6 0.599999 0
      vertex 12.9954 2.58495 0
    endloop
  endfacet
  facet normal 0 0 -1
    outer loop
      vertex 8.6 -0.599999 0
      vertex 12.2414 -5.07055 0
      vertex 11.6855 -6.24601 0
    endloop
  endfacet
  facet normal -0 0 -1
    outer loop
      vertex 12.9954 2.58495 0
      vertex 8.6 0.599999 0
      vertex 12.6795 3.84627 0
    endloop
  endfacet
  facet normal 0 0 -1
    outer loop
      vertex 8.6 -0.599999 0
      vertex 11.6855 -6.24601 0
      vertex 11.017 -7.36131 0
    endloop
  endfacet
  facet normal -0 0 -1
    outer loop
      vertex 12.6795 3.84627 0
      vertex 8.6 0.599999 0
      vertex 12.2414 5.07055 0
    endloop
  endfacet
  facet normal 0 0 -1
    outer loop
      vertex 3.22818 -7.99368 0
      vertex 11.017 -7.36131 0
      vertex 10.2424 -8.40571 0
    endloop
  endfacet
  facet normal -0 0 -1
    outer loop
      vertex 12.2414 5.07055 0
      vertex 8.6 0.599999 0
      vertex 11.6855 6.24601 0
    endloop
  endfacet
  facet normal 0 0 -1
    outer loop
      vertex 3.22818 -7.99368 0
      vertex 10.2424 -8.40571 0
      vertex 9.36916 -9.36916 0
    endloop
  endfacet
  facet normal -0 0 -1
    outer loop
      vertex 11.6855 6.24601 0
      vertex 8.6 0.599999 0
      vertex 11.017 7.36131 0
    endloop
  endfacet
  facet normal 0 0 -1
    outer loop
      vertex 3.22818 7.99368 0
      vertex 11.017 7.36131 0
      vertex 8.6 0.599999 0
    endloop
  endfacet
  facet normal 0 0 -1
    outer loop
      vertex 3.22818 -7.99368 0
      vertex 9.36916 -9.36916 0
      vertex 8.40571 -10.2424 0
    endloop
  endfacet
  facet normal 0 0 -1
    outer loop
      vertex 3.22818 -7.99368 0
      vertex 8.40571 -10.2424 0
      vertex 7.36131 -11.017 0
    endloop
  endfacet
  facet normal 0 0 -1
    outer loop
      vertex 3.22818 -7.99368 0
      vertex 7.36131 -11.017 0
      vertex 6.24601 -11.6855 0
    endloop
  endfacet
  facet normal 0 0 -1
    outer loop
      vertex 3.22818 -7.99368 0
      vertex 6.24601 -11.6855 0
      vertex 5.07055 -12.2414 0
    endloop
  endfacet
  facet normal 0 0 -1
    outer loop
      vertex 3.22818 -7.99368 0
      vertex 5.07055 -12.2414 0
      vertex 3.84627 -12.6795 0
    endloop
  endfacet
  facet normal -0 0 -1
    outer loop
      vertex 11.017 -7.36131 0
      vertex 3.22818 -7.99368 0
      vertex 8.6 -0.599999 0
    endloop
  endfacet
  facet normal 0 0 -1
    outer loop
      vertex 3.22818 -7.99368 0
      vertex 1.6 -0.599999 0
      vertex 8.6 -0.599999 0
    endloop
  endfacet
  facet normal -0 0 -1
    outer loop
      vertex 1.6 -0.599999 0
      vertex 1.06506 -1.33628 0
      vertex 1.6 0.599999 0
    endloop
  endfacet
  facet normal 0 0 -1
    outer loop
      vertex 1.06506 -1.33628 0
      vertex 1.6 -0.599999 0
      vertex 3.22818 -7.99368 0
    endloop
  endfacet
  facet normal 0 0 -1
    outer loop
      vertex 11.017 7.36131 0
      vertex 3.22818 7.99368 0
      vertex 10.2424 8.40571 0
    endloop
  endfacet
  facet normal -0 0 -1
    outer loop
      vertex 10.2424 8.40571 0
      vertex 3.22818 7.99368 0
      vertex 9.36916 9.36916 0
    endloop
  endfacet
  facet normal -0 0 -1
    outer loop
      vertex 9.36916 9.36916 0
      vertex 3.22818 7.99368 0
      vertex 8.40571 10.2424 0
    endloop
  endfacet
  facet normal -0 0 -1
    outer loop
      vertex 8.40571 10.2424 0
      vertex 3.22818 7.99368 0
      vertex 7.36131 11.017 0
    endloop
  endfacet
  facet normal -0 0 -1
    outer loop
      vertex 7.36131 11.017 0
      vertex 3.22818 7.99368 0
      vertex 6.24601 11.6855 0
    endloop
  endfacet
  facet normal -0 0 -1
    outer loop
      vertex 6.24601 11.6855 0
      vertex 3.22818 7.99368 0
      vertex 5.07055 12.2414 0
    endloop
  endfacet
  facet normal -0 0 -1
    outer loop
      vertex 5.07055 12.2414 0
      vertex 3.22818 7.99368 0
      vertex 3.84627 12.6795 0
    endloop
  endfacet
  facet normal 0 0 -1
    outer loop
      vertex 1.6 0.599999 0
      vertex 3.22818 7.99368 0
      vertex 8.6 0.599999 0
    endloop
  endfacet
  facet normal 0 0 -1
    outer loop
      vertex 1.06506 1.33628 0
      vertex 1.6 0.599999 0
      vertex 1.06506 -1.33628 0
    endloop
  endfacet
  facet normal 0 0 -1
    outer loop
      vertex 1.6 0.599999 0
      vertex 1.06506 1.33628 0
      vertex 3.22818 7.99368 0
    endloop
  endfacet
  facet normal 0 0 -1
    outer loop
      vertex -0.0762062 -1.7071 0
      vertex 1.06506 1.33628 0
      vertex 1.06506 -1.33628 0
    endloop
  endfacet
  facet normal -0 0 -1
    outer loop
      vertex 1.06506 1.33628 0
      vertex -0.0762062 -1.7071 0
      vertex -0.0762062 1.7071 0
    endloop
  endfacet
  facet normal 0 0 -1
    outer loop
      vertex 2.08691 8.3645 0
      vertex 3.84627 12.6795 0
      vertex 3.22818 7.99368 0
    endloop
  endfacet
  facet normal -0 0 -1
    outer loop
      vertex 3.84627 12.6795 0
      vertex 2.08691 8.3645 0
      vertex 2.58495 12.9954 0
    endloop
  endfacet
  facet normal 0 0 -1
    outer loop
      vertex 2.08691 8.3645 0
      vertex 1.29873 13.1862 0
      vertex 2.58495 12.9954 0
    endloop
  endfacet
  facet normal 0 0 -1
    outer loop
      vertex 2.08691 8.3645 0
      vertex 0 13.25 0
      vertex 1.29873 13.1862 0
    endloop
  endfacet
  facet normal 0 0 -1
    outer loop
      vertex -6.60487 5.54036 0
      vertex 2.08691 8.3645 0
      vertex -0.0762062 1.7071 0
    endloop
  endfacet
  facet normal 0 0 -1
    outer loop
      vertex -0.941755 1.42587 0
      vertex -0.0762062 1.7071 0
      vertex -0.941755 -1.42587 0
    endloop
  endfacet
  facet normal 0 0 -1
    outer loop
      vertex -6.60487 5.54036 0
      vertex -0.0762062 1.7071 0
      vertex -0.941755 1.42587 0
    endloop
  endfacet
  facet normal 0 0 -1
    outer loop
      vertex 2.08691 8.3645 0
      vertex -1.29873 13.1862 0
      vertex 0 13.25 0
    endloop
  endfacet
  facet normal 0 -0 -1
    outer loop
      vertex -3.84627 12.6795 0
      vertex 2.08691 8.3645 0
      vertex -6.60487 5.54036 0
    endloop
  endfacet
  facet normal 0 0 -1
    outer loop
      vertex 2.08691 8.3645 0
      vertex -2.58495 12.9954 0
      vertex -1.29873 13.1862 0
    endloop
  endfacet
  facet normal 0 0 -1
    outer loop
      vertex 2.08691 8.3645 0
      vertex -3.84627 12.6795 0
      vertex -2.58495 12.9954 0
    endloop
  endfacet
  facet normal 0 0 -1
    outer loop
      vertex -3.84627 12.6795 0
      vertex -6.60487 5.54036 0
      vertex -5.07055 12.2414 0
    endloop
  endfacet
  facet normal 0 0 -1
    outer loop
      vertex -5.07055 12.2414 0
      vertex -6.60487 5.54036 0
      vertex -6.24601 11.6855 0
    endloop
  endfacet
  facet normal 0 0 -1
    outer loop
      vertex -11.017 7.36131 0
      vertex -6.60487 5.54036 0
      vertex -7.31022 4.56954 0
    endloop
  endfacet
  facet normal 0 0 -1
    outer loop
      vertex -6.60487 5.54036 0
      vertex -7.36131 11.017 0
      vertex -6.24601 11.6855 0
    endloop
  endfacet
  facet normal 0 0 -1
    outer loop
      vertex -10.2424 -8.40571 0
      vertex -6.60487 -5.54036 0
      vertex -9.36916 -9.36916 0
    endloop
  endfacet
  facet normal 0 0 -1
    outer loop
      vertex -11.017 -7.36131 0
      vertex -6.60487 -5.54036 0
      vertex -10.2424 -8.40571 0
    endloop
  endfacet
  facet normal 0 0 -1
    outer loop
      vertex -6.60487 5.54036 0
      vertex -8.40571 10.2424 0
      vertex -7.36131 11.017 0
    endloop
  endfacet
  facet normal -0 0 -1
    outer loop
      vertex -6.60487 -5.54036 0
      vertex -11.017 -7.36131 0
      vertex -7.31022 -4.56954 0
    endloop
  endfacet
  facet normal 0 0 -1
    outer loop
      vertex -6.60487 5.54036 0
      vertex -9.36916 9.36916 0
      vertex -8.40571 10.2424 0
    endloop
  endfacet
  facet normal 0 0 -1
    outer loop
      vertex -11.6855 -6.24601 0
      vertex -7.31022 -4.56954 0
      vertex -11.017 -7.36131 0
    endloop
  endfacet
  facet normal 0 0 -1
    outer loop
      vertex -6.60487 5.54036 0
      vertex -10.2424 8.40571 0
      vertex -9.36916 9.36916 0
    endloop
  endfacet
  facet normal 0 0 -1
    outer loop
      vertex -12.2414 -5.07055 0
      vertex -7.31022 -4.56954 0
      vertex -11.6855 -6.24601 0
    endloop
  endfacet
  facet normal 0 0 -1
    outer loop
      vertex -6.60487 5.54036 0
      vertex -11.017 7.36131 0
      vertex -10.2424 8.40571 0
    endloop
  endfacet
  facet normal 0 0 -1
    outer loop
      vertex -12.6795 -3.84627 0
      vertex -7.31022 -4.56954 0
      vertex -12.2414 -5.07055 0
    endloop
  endfacet
  facet normal 0 0 -1
    outer loop
      vertex -7.31022 4.56954 0
      vertex -11.6855 6.24601 0
      vertex -11.017 7.36131 0
    endloop
  endfacet
  facet normal 0 0 -1
    outer loop
      vertex -12.9954 -2.58495 0
      vertex -7.31022 -4.56954 0
      vertex -12.6795 -3.84627 0
    endloop
  endfacet
  facet normal 0 0 -1
    outer loop
      vertex -7.31022 4.56954 0
      vertex -12.2414 5.07055 0
      vertex -11.6855 6.24601 0
    endloop
  endfacet
  facet normal 0 0 -1
    outer loop
      vertex -13.1862 -1.29873 0
      vertex -7.31022 -4.56954 0
      vertex -12.9954 -2.58495 0
    endloop
  endfacet
  facet normal -0 0 -1
    outer loop
      vertex -7.31022 4.56954 0
      vertex -12.6795 3.84627 0
      vertex -12.2414 5.07055 0
    endloop
  endfacet
  facet normal 0 0 -1
    outer loop
      vertex -13.25 0 0
      vertex -7.31022 -4.56954 0
      vertex -13.1862 -1.29873 0
    endloop
  endfacet
  facet normal 0 0 -1
    outer loop
      vertex -7.31022 4.56954 0
      vertex -12.9954 2.58495 0
      vertex -12.6795 3.84627 0
    endloop
  endfacet
  facet normal 0 0 -1
    outer loop
      vertex -7.31022 -4.56954 0
      vertex -13.25 0 0
      vertex -7.31022 4.56954 0
    endloop
  endfacet
  facet normal 0 0 -1
    outer loop
      vertex -7.31022 4.56954 0
      vertex -13.1862 1.29873 0
      vertex -12.9954 2.58495 0
    endloop
  endfacet
  facet normal 0 0 -1
    outer loop
      vertex -7.31022 4.56954 0
      vertex -13.25 0 0
      vertex -13.1862 1.29873 0
    endloop
  endfacet
  facet normal -0.8032 -0.595709 0
    outer loop
      vertex -10.2424 -8.40571 0
      vertex -11.017 -7.36131 0.599999
      vertex -11.017 -7.36131 0
    endloop
  endfacet
  facet normal -0.8032 -0.595709 0
    outer loop
      vertex -11.017 -7.36131 0.599999
      vertex -10.2424 -8.40571 0
      vertex -10.2424 -8.40571 0.599999
    endloop
  endfacet
  facet normal -0.904005 -0.427523 0
    outer loop
      vertex -11.6855 -6.24601 0
      vertex -12.2414 -5.07055 0.599999
      vertex -12.2414 -5.07055 0
    endloop
  endfacet
  facet normal -0.904005 -0.427523 0
    outer loop
      vertex -12.2414 -5.07055 0.599999
      vertex -11.6855 -6.24601 0
      vertex -11.6855 -6.24601 0.599999
    endloop
  endfacet
  facet normal -0.740944 -0.671567 0
    outer loop
      vertex -9.36916 -9.36916 0
      vertex -10.2424 -8.40571 0.599999
      vertex -10.2424 -8.40571 0
    endloop
  endfacet
  facet normal -0.740944 -0.671567 0
    outer loop
      vertex -10.2424 -8.40571 0.599999
      vertex -9.36916 -9.36916 0
      vertex -9.36916 -9.36916 0.599999
    endloop
  endfacet
  facet normal 0.146736 0.989176 -0
    outer loop
      vertex 2.58495 12.9954 0
      vertex 1.29873 13.1862 0.599999
      vertex 2.58495 12.9954 0.599999
    endloop
  endfacet
  facet normal 0.146736 0.989176 0
    outer loop
      vertex 1.29873 13.1862 0.599999
      vertex 2.58495 12.9954 0
      vertex 1.29873 13.1862 0
    endloop
  endfacet
  facet normal -0 0 1
    outer loop
      vertex -1.6471 0.455046 0.599999
      vertex -0.941755 -1.42587 0.599999
      vertex -0.941755 1.42587 0.599999
    endloop
  endfacet
  facet normal 0 0 1
    outer loop
      vertex -1.6471 0.455046 0.599999
      vertex -1.6471 -0.455046 0.599999
      vertex -0.941755 -1.42587 0.599999
    endloop
  endfacet
  facet normal 0 0 1
    outer loop
      vertex -7.31022 4.56954 0.599999
      vertex -1.6471 -0.455046 0.599999
      vertex -1.6471 0.455046 0.599999
    endloop
  endfacet
  facet normal 0 0 1
    outer loop
      vertex -1.6471 -0.455046 0.599999
      vertex -7.31022 4.56954 0.599999
      vertex -7.31022 -4.56954 0.599999
    endloop
  endfacet
  facet normal 0 0 1
    outer loop
      vertex 2.08691 8.3645 0.599999
      vertex 3.84627 12.6795 0.599999
      vertex 2.58495 12.9954 0.599999
    endloop
  endfacet
  facet normal 0 0 1
    outer loop
      vertex 3.84627 12.6795 0.599999
      vertex 2.08691 8.3645 0.599999
      vertex 3.22818 7.99368 0.599999
    endloop
  endfacet
  facet normal 0 0 1
    outer loop
      vertex 1.29873 13.1862 0.599999
      vertex 2.08691 8.3645 0.599999
      vertex 2.58495 12.9954 0.599999
    endloop
  endfacet
  facet normal 0 0 1
    outer loop
      vertex 0 13.25 0.599999
      vertex 2.08691 8.3645 0.599999
      vertex 1.29873 13.1862 0.599999
    endloop
  endfacet
  facet normal -0 0 1
    outer loop
      vertex -1.29873 13.1862 0.599999
      vertex 2.08691 8.3645 0.599999
      vertex 0 13.25 0.599999
    endloop
  endfacet
  facet normal 0 0 1
    outer loop
      vertex -0.0762062 1.7071 0.599999
      vertex -0.941755 1.42587 0.599999
      vertex -0.0762062 -1.7071 0.599999
    endloop
  endfacet
  facet normal -0 0 1
    outer loop
      vertex -2.58495 12.9954 0.599999
      vertex 2.08691 8.3645 0.599999
      vertex -1.29873 13.1862 0.599999
    endloop
  endfacet
  facet normal 0 0 1
    outer loop
      vertex 2.08691 8.3645 0.599999
      vertex -6.60487 5.54036 0.599999
      vertex -0.0762062 1.7071 0.599999
    endloop
  endfacet
  facet normal -0 0 1
    outer loop
      vertex -3.84627 12.6795 0.599999
      vertex 2.08691 8.3645 0.599999
      vertex -2.58495 12.9954 0.599999
    endloop
  endfacet
  facet normal 0 0 1
    outer loop
      vertex 2.08691 8.3645 0.599999
      vertex -3.84627 12.6795 0.599999
      vertex -6.60487 5.54036 0.599999
    endloop
  endfacet
  facet normal 0 0 1
    outer loop
      vertex -6.60487 5.54036 0.599999
      vertex -3.84627 12.6795 0.599999
      vertex -5.07055 12.2414 0.599999
    endloop
  endfacet
  facet normal 0 0 1
    outer loop
      vertex -6.60487 5.54036 0.599999
      vertex -5.07055 12.2414 0.599999
      vertex -6.24601 11.6855 0.599999
    endloop
  endfacet
  facet normal 0 0 1
    outer loop
      vertex -0.0762062 1.7071 0.599999
      vertex -6.60487 5.54036 0.599999
      vertex -0.941755 1.42587 0.599999
    endloop
  endfacet
  facet normal -0 0 1
    outer loop
      vertex -7.36131 11.017 0.599999
      vertex -6.60487 5.54036 0.599999
      vertex -6.24601 11.6855 0.599999
    endloop
  endfacet
  facet normal -0 0 1
    outer loop
      vertex -9.36916 9.36916 0.599999
      vertex -6.60487 5.54036 0.599999
      vertex -8.40571 10.2424 0.599999
    endloop
  endfacet
  facet normal -0 0 1
    outer loop
      vertex -8.40571 10.2424 0.599999
      vertex -6.60487 5.54036 0.599999
      vertex -7.36131 11.017 0.599999
    endloop
  endfacet
  facet normal -0 0 1
    outer loop
      vertex 8.6 0.599999 0.599999
      vertex 13.25 0 0.599999
      vertex 13.1862 1.29873 0.599999
    endloop
  endfacet
  facet normal 0 0 1
    outer loop
      vertex 8.6 0.599999 0.599999
      vertex 13.1862 1.29873 0.599999
      vertex 12.9954 2.58495 0.599999
    endloop
  endfacet
  facet normal 0 0 1
    outer loop
      vertex 8.6 -0.599999 0.599999
      vertex 13.25 0 0.599999
      vertex 8.6 0.599999 0.599999
    endloop
  endfacet
  facet normal 0 0 1
    outer loop
      vertex 8.6 0.599999 0.599999
      vertex 12.9954 2.58495 0.599999
      vertex 12.6795 3.84627 0.599999
    endloop
  endfacet
  facet normal 0 0 1
    outer loop
      vertex 13.25 0 0.599999
      vertex 8.6 -0.599999 0.599999
      vertex 13.1862 -1.29873 0.599999
    endloop
  endfacet
  facet normal 0 0 1
    outer loop
      vertex 8.6 0.599999 0.599999
      vertex 12.6795 3.84627 0.599999
      vertex 12.2414 5.07055 0.599999
    endloop
  endfacet
  facet normal 0 0 1
    outer loop
      vertex 13.1862 -1.29873 0.599999
      vertex 8.6 -0.599999 0.599999
      vertex 12.9954 -2.58495 0.599999
    endloop
  endfacet
  facet normal 0 0 1
    outer loop
      vertex 8.6 0.599999 0.599999
      vertex 12.2414 5.07055 0.599999
      vertex 11.6855 6.24601 0.599999
    endloop
  endfacet
  facet normal 0 0 1
    outer loop
      vertex 12.9954 -2.58495 0.599999
      vertex 8.6 -0.599999 0.599999
      vertex 12.6795 -3.84627 0.599999
    endloop
  endfacet
  facet normal 0 0 1
    outer loop
      vertex 8.6 0.599999 0.599999
      vertex 11.6855 6.24601 0.599999
      vertex 11.017 7.36131 0.599999
    endloop
  endfacet
  facet normal 0 0 1
    outer loop
      vertex 12.6795 -3.84627 0.599999
      vertex 8.6 -0.599999 0.599999
      vertex 12.2414 -5.07055 0.599999
    endloop
  endfacet
  facet normal -0 0 1
    outer loop
      vertex 3.22818 7.99368 0.599999
      vertex 11.017 7.36131 0.599999
      vertex 10.2424 8.40571 0.599999
    endloop
  endfacet
  facet normal 0 0 1
    outer loop
      vertex 12.2414 -5.07055 0.599999
      vertex 8.6 -0.599999 0.599999
      vertex 11.6855 -6.24601 0.599999
    endloop
  endfacet
  facet normal 0 0 1
    outer loop
      vertex 3.22818 7.99368 0.599999
      vertex 10.2424 8.40571 0.599999
      vertex 9.36916 9.36916 0.599999
    endloop
  endfacet
  facet normal 0 0 1
    outer loop
      vertex 11.6855 -6.24601 0.599999
      vertex 8.6 -0.599999 0.599999
      vertex 11.017 -7.36131 0.599999
    endloop
  endfacet
  facet normal 0 0 1
    outer loop
      vertex 3.22818 -7.99368 0.599999
      vertex 11.017 -7.36131 0.599999
      vertex 8.6 -0.599999 0.599999
    endloop
  endfacet
  facet normal 0 0 1
    outer loop
      vertex 3.22818 7.99368 0.599999
      vertex 9.36916 9.36916 0.599999
      vertex 8.40571 10.2424 0.599999
    endloop
  endfacet
  facet normal 0 0 1
    outer loop
      vertex 3.22818 7.99368 0.599999
      vertex 8.40571 10.2424 0.599999
      vertex 7.36131 11.017 0.599999
    endloop
  endfacet
  facet normal 0 0 1
    outer loop
      vertex 3.22818 7.99368 0.599999
      vertex 7.36131 11.017 0.599999
      vertex 6.24601 11.6855 0.599999
    endloop
  endfacet
  facet normal 0 0 1
    outer loop
      vertex 3.22818 7.99368 0.599999
      vertex 6.24601 11.6855 0.599999
      vertex 5.07055 12.2414 0.599999
    endloop
  endfacet
  facet normal 0 0 1
    outer loop
      vertex 3.22818 7.99368 0.599999
      vertex 5.07055 12.2414 0.599999
      vertex 3.84627 12.6795 0.599999
    endloop
  endfacet
  facet normal 0 0 1
    outer loop
      vertex 11.017 7.36131 0.599999
      vertex 3.22818 7.99368 0.599999
      vertex 8.6 0.599999 0.599999
    endloop
  endfacet
  facet normal 0 0 1
    outer loop
      vertex 3.22818 7.99368 0.599999
      vertex 1.6 0.599999 0.599999
      vertex 8.6 0.599999 0.599999
    endloop
  endfacet
  facet normal 0 0 1
    outer loop
      vertex 1.6 0.599999 0.599999
      vertex 1.06506 1.33628 0.599999
      vertex 1.6 -0.599999 0.599999
    endloop
  endfacet
  facet normal -0 0 1
    outer loop
      vertex 1.06506 1.33628 0.599999
      vertex 1.6 0.599999 0.599999
      vertex 3.22818 7.99368 0.599999
    endloop
  endfacet
  facet normal 0 0 1
    outer loop
      vertex 11.017 -7.36131 0.599999
      vertex 3.22818 -7.99368 0.599999
      vertex 10.2424 -8.40571 0.599999
    endloop
  endfacet
  facet normal 0 0 1
    outer loop
      vertex 10.2424 -8.40571 0.599999
      vertex 3.22818 -7.99368 0.599999
      vertex 9.36916 -9.36916 0.599999
    endloop
  endfacet
  facet normal 0 0 1
    outer loop
      vertex 9.36916 -9.36916 0.599999
      vertex 3.22818 -7.99368 0.599999
      vertex 8.40571 -10.2424 0.599999
    endloop
  endfacet
  facet normal 0 0 1
    outer loop
      vertex 8.40571 -10.2424 0.599999
      vertex 3.22818 -7.99368 0.599999
      vertex 7.36131 -11.017 0.599999
    endloop
  endfacet
  facet normal 0 0 1
    outer loop
      vertex 7.36131 -11.017 0.599999
      vertex 3.22818 -7.99368 0.599999
      vertex 6.24601 -11.6855 0.599999
    endloop
  endfacet
  facet normal 0 0 1
    outer loop
      vertex 6.24601 -11.6855 0.599999
      vertex 3.22818 -7.99368 0.599999
      vertex 5.07055 -12.2414 0.599999
    endloop
  endfacet
  facet normal 0 0 1
    outer loop
      vertex 5.07055 -12.2414 0.599999
      vertex 3.22818 -7.99368 0.599999
      vertex 3.84627 -12.6795 0.599999
    endloop
  endfacet
  facet normal -0 0 1
    outer loop
      vertex 1.6 -0.599999 0.599999
      vertex 3.22818 -7.99368 0.599999
      vertex 8.6 -0.599999 0.599999
    endloop
  endfacet
  facet normal 0 0 1
    outer loop
      vertex 1.06506 -1.33628 0.599999
      vertex 1.6 -0.599999 0.599999
      vertex 1.06506 1.33628 0.599999
    endloop
  endfacet
  facet normal 0 0 1
    outer loop
      vertex 1.6 -0.599999 0.599999
      vertex 1.06506 -1.33628 0.599999
      vertex 3.22818 -7.99368 0.599999
    endloop
  endfacet
  facet normal 0 0 1
    outer loop
      vertex -0.0762062 1.7071 0.599999
      vertex 1.06506 -1.33628 0.599999
      vertex 1.06506 1.33628 0.599999
    endloop
  endfacet
  facet normal 0 0 1
    outer loop
      vertex 1.06506 -1.33628 0.599999
      vertex -0.0762062 1.7071 0.599999
      vertex -0.0762062 -1.7071 0.599999
    endloop
  endfacet
  facet normal -0 0 1
    outer loop
      vertex 2.08691 -8.3645 0.599999
      vertex 3.84627 -12.6795 0.599999
      vertex 3.22818 -7.99368 0.599999
    endloop
  endfacet
  facet normal 0 0 1
    outer loop
      vertex 3.84627 -12.6795 0.599999
      vertex 2.08691 -8.3645 0.599999
      vertex 2.58495 -12.9954 0.599999
    endloop
  endfacet
  facet normal 0 0 1
    outer loop
      vertex 2.08691 -8.3645 0.599999
      vertex 1.29873 -13.1862 0.599999
      vertex 2.58495 -12.9954 0.599999
    endloop
  endfacet
  facet normal 0 0 1
    outer loop
      vertex 2.08691 -8.3645 0.599999
      vertex 0 -13.25 0.599999
      vertex 1.29873 -13.1862 0.599999
    endloop
  endfacet
  facet normal -0 0 1
    outer loop
      vertex -6.60487 -5.54036 0.599999
      vertex 2.08691 -8.3645 0.599999
      vertex -0.0762062 -1.7071 0.599999
    endloop
  endfacet
  facet normal -0 0 1
    outer loop
      vertex -0.941755 -1.42587 0.599999
      vertex -0.0762062 -1.7071 0.599999
      vertex -0.941755 1.42587 0.599999
    endloop
  endfacet
  facet normal 0 0 1
    outer loop
      vertex -6.60487 -5.54036 0.599999
      vertex -0.0762062 -1.7071 0.599999
      vertex -0.941755 -1.42587 0.599999
    endloop
  endfacet
  facet normal 0 0 1
    outer loop
      vertex 2.08691 -8.3645 0.599999
      vertex -1.29873 -13.1862 0.599999
      vertex 0 -13.25 0.599999
    endloop
  endfacet
  facet normal 0 -0 1
    outer loop
      vertex -3.84627 -12.6795 0.599999
      vertex 2.08691 -8.3645 0.599999
      vertex -6.60487 -5.54036 0.599999
    endloop
  endfacet
  facet normal 0 0 1
    outer loop
      vertex 2.08691 -8.3645 0.599999
      vertex -2.58495 -12.9954 0.599999
      vertex -1.29873 -13.1862 0.599999
    endloop
  endfacet
  facet normal 0 0 1
    outer loop
      vertex 2.08691 -8.3645 0.599999
      vertex -3.84627 -12.6795 0.599999
      vertex -2.58495 -12.9954 0.599999
    endloop
  endfacet
  facet normal 0 0 1
    outer loop
      vertex -3.84627 -12.6795 0.599999
      vertex -6.60487 -5.54036 0.599999
      vertex -5.07055 -12.2414 0.599999
    endloop
  endfacet
  facet normal 0 0 1
    outer loop
      vertex -5.07055 -12.2414 0.599999
      vertex -6.60487 -5.54036 0.599999
      vertex -6.24601 -11.6855 0.599999
    endloop
  endfacet
  facet normal 0 0 1
    outer loop
      vertex -11.017 -7.36131 0.599999
      vertex -6.60487 -5.54036 0.599999
      vertex -7.31022 -4.56954 0.599999
    endloop
  endfacet
  facet normal 0 0 1
    outer loop
      vertex -6.60487 -5.54036 0.599999
      vertex -7.36131 -11.017 0.599999
      vertex -6.24601 -11.6855 0.599999
    endloop
  endfacet
  facet normal -0 0 1
    outer loop
      vertex -10.2424 8.40571 0.599999
      vertex -6.60487 5.54036 0.599999
      vertex -9.36916 9.36916 0.599999
    endloop
  endfacet
  facet normal -0 0 1
    outer loop
      vertex -11.017 7.36131 0.599999
      vertex -6.60487 5.54036 0.599999
      vertex -10.2424 8.40571 0.599999
    endloop
  endfacet
  facet normal 0 0 1
    outer loop
      vertex -6.60487 -5.54036 0.599999
      vertex -8.40571 -10.2424 0.599999
      vertex -7.36131 -11.017 0.599999
    endloop
  endfacet
  facet normal 0 0 1
    outer loop
      vertex -6.60487 5.54036 0.599999
      vertex -11.017 7.36131 0.599999
      vertex -7.31022 4.56954 0.599999
    endloop
  endfacet
  facet normal 0 0 1
    outer loop
      vertex -6.60487 -5.54036 0.599999
      vertex -9.36916 -9.36916 0.599999
      vertex -8.40571 -10.2424 0.599999
    endloop
  endfacet
  facet normal -0 0 1
    outer loop
      vertex -11.6855 6.24601 0.599999
      vertex -7.31022 4.56954 0.599999
      vertex -11.017 7.36131 0.599999
    endloop
  endfacet
  facet normal 0 0 1
    outer loop
      vertex -6.60487 -5.54036 0.599999
      vertex -10.2424 -8.40571 0.599999
      vertex -9.36916 -9.36916 0.599999
    endloop
  endfacet
  facet normal -0 0 1
    outer loop
      vertex -12.2414 5.07055 0.599999
      vertex -7.31022 4.56954 0.599999
      vertex -11.6855 6.24601 0.599999
    endloop
  endfacet
  facet normal 0 0 1
    outer loop
      vertex -6.60487 -5.54036 0.599999
      vertex -11.017 -7.36131 0.599999
      vertex -10.2424 -8.40571 0.599999
    endloop
  endfacet
  facet normal 0 0 1
    outer loop
      vertex -12.6795 3.84627 0.599999
      vertex -7.31022 4.56954 0.599999
      vertex -12.2414 5.07055 0.599999
    endloop
  endfacet
  facet normal 0 0 1
    outer loop
      vertex -7.31022 -4.56954 0.599999
      vertex -11.6855 -6.24601 0.599999
      vertex -11.017 -7.36131 0.599999
    endloop
  endfacet
  facet normal 0 0 1
    outer loop
      vertex -12.9954 2.58495 0.599999
      vertex -7.31022 4.56954 0.599999
      vertex -12.6795 3.84627 0.599999
    endloop
  endfacet
  facet normal 0 0 1
    outer loop
      vertex -7.31022 -4.56954 0.599999
      vertex -12.2414 -5.07055 0.599999
      vertex -11.6855 -6.24601 0.599999
    endloop
  endfacet
  facet normal 0 0 1
    outer loop
      vertex -13.1862 1.29873 0.599999
      vertex -7.31022 4.56954 0.599999
      vertex -12.9954 2.58495 0.599999
    endloop
  endfacet
  facet normal 0 0 1
    outer loop
      vertex -7.31022 -4.56954 0.599999
      vertex -12.6795 -3.84627 0.599999
      vertex -12.2414 -5.07055 0.599999
    endloop
  endfacet
  facet normal 0 0 1
    outer loop
      vertex -13.25 0 0.599999
      vertex -7.31022 4.56954 0.599999
      vertex -13.1862 1.29873 0.599999
    endloop
  endfacet
  facet normal 0 0 1
    outer loop
      vertex -7.31022 -4.56954 0.599999
      vertex -12.9954 -2.58495 0.599999
      vertex -12.6795 -3.84627 0.599999
    endloop
  endfacet
  facet normal 0 0 1
    outer loop
      vertex -7.31022 4.56954 0.599999
      vertex -13.25 0 0.599999
      vertex -7.31022 -4.56954 0.599999
    endloop
  endfacet
  facet normal 0 0 1
    outer loop
      vertex -7.31022 -4.56954 0.599999
      vertex -13.1862 -1.29873 0.599999
      vertex -12.9954 -2.58495 0.599999
    endloop
  endfacet
  facet normal 0 0 1
    outer loop
      vertex -7.31022 -4.56954 0.599999
      vertex -13.25 0 0.599999
      vertex -13.1862 -1.29873 0.599999
    endloop
  endfacet
  facet normal -0.989176 0.146736 0
    outer loop
      vertex -13.1862 1.29873 0
      vertex -12.9954 2.58495 0.599999
      vertex -12.9954 2.58495 0
    endloop
  endfacet
  facet normal -0.989176 0.146736 0
    outer loop
      vertex -12.9954 2.58495 0.599999
      vertex -13.1862 1.29873 0
      vertex -13.1862 1.29873 0.599999
    endloop
  endfacet
  facet normal 0.989176 -0.146736 0
    outer loop
      vertex 12.9954 -2.58495 0.599999
      vertex 13.1862 -1.29873 0
      vertex 13.1862 -1.29873 0.599999
    endloop
  endfacet
  facet normal 0.989176 -0.146736 0
    outer loop
      vertex 13.1862 -1.29873 0
      vertex 12.9954 -2.58495 0.599999
      vertex 12.9954 -2.58495 0
    endloop
  endfacet
  facet normal 0.941533 -0.336921 0
    outer loop
      vertex 12.2414 -5.07055 0.599999
      vertex 12.6795 -3.84627 0
      vertex 12.6795 -3.84627 0.599999
    endloop
  endfacet
  facet normal 0.941533 -0.336921 0
    outer loop
      vertex 12.6795 -3.84627 0
      vertex 12.2414 -5.07055 0.599999
      vertex 12.2414 -5.07055 0
    endloop
  endfacet
  facet normal 0.336921 -0.941533 0
    outer loop
      vertex 3.84627 -12.6795 0
      vertex 5.07055 -12.2414 0.599999
      vertex 3.84627 -12.6795 0.599999
    endloop
  endfacet
  facet normal 0.336921 -0.941533 0
    outer loop
      vertex 5.07055 -12.2414 0.599999
      vertex 3.84627 -12.6795 0
      vertex 5.07055 -12.2414 0
    endloop
  endfacet
  facet normal 0.671567 -0.740944 0
    outer loop
      vertex 8.40571 -10.2424 0
      vertex 9.36916 -9.36916 0.599999
      vertex 8.40571 -10.2424 0.599999
    endloop
  endfacet
  facet normal 0.671567 -0.740944 0
    outer loop
      vertex 9.36916 -9.36916 0.599999
      vertex 8.40571 -10.2424 0
      vertex 9.36916 -9.36916 0
    endloop
  endfacet
  facet normal 0.514111 -0.857724 0
    outer loop
      vertex 6.24601 -11.6855 0
      vertex 7.36131 -11.017 0.599999
      vertex 6.24601 -11.6855 0.599999
    endloop
  endfacet
  facet normal 0.514111 -0.857724 0
    outer loop
      vertex 7.36131 -11.017 0.599999
      vertex 6.24601 -11.6855 0
      vertex 7.36131 -11.017 0
    endloop
  endfacet
  facet normal 0.904005 -0.427523 0
    outer loop
      vertex 11.6855 -6.24601 0.599999
      vertex 12.2414 -5.07055 0
      vertex 12.2414 -5.07055 0.599999
    endloop
  endfacet
  facet normal 0.904005 -0.427523 0
    outer loop
      vertex 12.2414 -5.07055 0
      vertex 11.6855 -6.24601 0.599999
      vertex 11.6855 -6.24601 0
    endloop
  endfacet
  facet normal 0.8032 -0.595709 0
    outer loop
      vertex 10.2424 -8.40571 0.599999
      vertex 11.017 -7.36131 0
      vertex 11.017 -7.36131 0.599999
    endloop
  endfacet
  facet normal 0.8032 -0.595709 0
    outer loop
      vertex 11.017 -7.36131 0
      vertex 10.2424 -8.40571 0.599999
      vertex 10.2424 -8.40571 0
    endloop
  endfacet
  facet normal -0.242948 -0.970039 0
    outer loop
      vertex -3.84627 -12.6795 0
      vertex -2.58495 -12.9954 0.599999
      vertex -3.84627 -12.6795 0.599999
    endloop
  endfacet
  facet normal -0.242948 -0.970039 -0
    outer loop
      vertex -2.58495 -12.9954 0.599999
      vertex -3.84627 -12.6795 0
      vertex -2.58495 -12.9954 0
    endloop
  endfacet
  facet normal -0.595709 -0.8032 0
    outer loop
      vertex -8.40571 -10.2424 0
      vertex -7.36131 -11.017 0.599999
      vertex -8.40571 -10.2424 0.599999
    endloop
  endfacet
  facet normal -0.595709 -0.8032 -0
    outer loop
      vertex -7.36131 -11.017 0.599999
      vertex -8.40571 -10.2424 0
      vertex -7.36131 -11.017 0
    endloop
  endfacet
  facet normal -0.941533 -0.336921 0
    outer loop
      vertex -12.2414 -5.07055 0
      vertex -12.6795 -3.84627 0.599999
      vertex -12.6795 -3.84627 0
    endloop
  endfacet
  facet normal -0.941533 -0.336921 0
    outer loop
      vertex -12.6795 -3.84627 0.599999
      vertex -12.2414 -5.07055 0
      vertex -12.2414 -5.07055 0.599999
    endloop
  endfacet
  facet normal -0.989176 -0.146736 0
    outer loop
      vertex -12.9954 -2.58495 0
      vertex -13.1862 -1.29873 0.599999
      vertex -13.1862 -1.29873 0
    endloop
  endfacet
  facet normal -0.989176 -0.146736 0
    outer loop
      vertex -13.1862 -1.29873 0.599999
      vertex -12.9954 -2.58495 0
      vertex -12.9954 -2.58495 0.599999
    endloop
  endfacet
  facet normal -0.857724 -0.514111 0
    outer loop
      vertex -11.017 -7.36131 0
      vertex -11.6855 -6.24601 0.599999
      vertex -11.6855 -6.24601 0
    endloop
  endfacet
  facet normal -0.857724 -0.514111 0
    outer loop
      vertex -11.6855 -6.24601 0.599999
      vertex -11.017 -7.36131 0
      vertex -11.017 -7.36131 0.599999
    endloop
  endfacet
  facet normal 0.970039 -0.242948 0
    outer loop
      vertex 12.6795 -3.84627 0.599999
      vertex 12.9954 -2.58495 0
      vertex 12.9954 -2.58495 0.599999
    endloop
  endfacet
  facet normal 0.970039 -0.242948 0
    outer loop
      vertex 12.9954 -2.58495 0
      vertex 12.6795 -3.84627 0.599999
      vertex 12.6795 -3.84627 0
    endloop
  endfacet
endsolid OpenSCAD_Model
